<svg width="24" height="24" viewBox="0 0 24 24" fill="none" xmlns="http://www.w3.org/2000/svg">
<path d="M11.775 4.52201C13.0455 4.62257 14.2694 5.04522 15.3312 5.75007C16.393 6.45492 17.2577 7.41873 17.8436 8.55051C18.4296 9.68229 18.7174 10.9447 18.68 12.2186C18.6427 13.4925 18.2813 14.7359 17.63 15.8314C16.9787 16.9269 16.059 17.8383 14.9577 18.4797C13.8564 19.121 12.6098 19.4712 11.3356 19.4971C10.0614 19.523 8.80162 19.2237 7.67517 18.6276C6.54872 18.0315 5.59277 17.1581 4.89753 16.09C7.00203 15.52 9.87153 14.137 11.1375 10.7635C11.9655 8.55251 12.0135 6.35501 11.775 4.52201ZM20.184 11.9995C20.184 10.7911 19.9406 9.59516 19.4683 8.48288C18.9961 7.3706 18.3047 6.3648 17.4355 5.52546C16.5662 4.68612 15.5367 4.03043 14.4086 3.59749C13.2804 3.16455 12.0767 2.96322 10.869 3.00551C10.7609 3.00906 10.6549 3.03595 10.5582 3.08432C10.4615 3.13269 10.3763 3.2014 10.3087 3.28575C10.241 3.37009 10.1924 3.46808 10.1661 3.57298C10.1398 3.67789 10.1366 3.78723 10.1565 3.89351C10.5015 5.71451 10.5765 7.98551 9.73203 10.2355C8.53203 13.4365 5.52903 14.4955 3.61653 14.842C3.50267 14.8626 3.39513 14.9093 3.30231 14.9783C3.20948 15.0474 3.13389 15.137 3.08145 15.2401C3.02902 15.3433 3.00115 15.4571 3.00003 15.5728C2.99892 15.6885 3.02459 15.8029 3.07503 15.907C3.95967 17.7443 5.44205 19.2268 7.27934 20.1115C9.11663 20.9962 11.1999 21.2308 13.1879 20.7767C15.1759 20.3227 16.9508 19.207 18.2219 17.6123C19.4929 16.0177 20.1847 14.0387 20.184 11.9995Z" fill="white"/>
</svg>
