<svg width="56" height="56" viewBox="0 0 56 56" fill="none" xmlns="http://www.w3.org/2000/svg">
<path d="M0 8C0 3.58172 3.58172 0 8 0H48C52.4183 0 56 3.58172 56 8V48C56 52.4183 52.4183 56 48 56H8C3.58172 56 0 52.4183 0 48V8Z" fill="#E0FDEF"/>
<path d="M18 10.5059C17.6685 10.5059 17.3505 10.6376 17.1161 10.872C16.8817 11.1064 16.75 11.4243 16.75 11.7559V29.2509C16.75 30.5769 17.2768 31.8487 18.2145 32.7864C19.1521 33.7241 20.4239 34.2509 21.75 34.2509H23V40.5009C23 41.1571 23.1293 41.807 23.3804 42.4133C23.6316 43.0196 23.9997 43.5706 24.4637 44.0346C24.9278 44.4987 25.4787 44.8668 26.085 45.1179C26.6914 45.3691 27.3412 45.4984 27.9975 45.4984C28.6538 45.4984 29.3036 45.3691 29.91 45.1179C30.5163 44.8668 31.0672 44.4987 31.5313 44.0346C31.9953 43.5706 32.3634 43.0196 32.6146 42.4133C32.8657 41.807 32.995 41.1571 32.995 40.5009V34.2509H34.25C35.5761 34.2509 36.8479 33.7241 37.7855 32.7864C38.7232 31.8487 39.25 30.5769 39.25 29.2509V11.7559C39.25 11.4243 39.1183 11.1064 38.8839 10.872C38.6495 10.6376 38.3315 10.5059 38 10.5059H18ZM36.75 25.5009H19.25V13.0059H26.75V16.7609C26.75 17.0924 26.8817 17.4103 27.1161 17.6447C27.3505 17.8792 27.6685 18.0109 28 18.0109C28.3315 18.0109 28.6495 17.8792 28.8839 17.6447C29.1183 17.4103 29.25 17.0924 29.25 16.7609V13.0059H31.75V19.2459C31.75 19.5774 31.8817 19.8953 32.1161 20.1297C32.3505 20.3642 32.6685 20.4959 33 20.4959C33.3315 20.4959 33.6495 20.3642 33.8839 20.1297C34.1183 19.8953 34.25 19.5774 34.25 19.2459V13.0059H36.75V25.5009ZM19.25 29.2509V28.0009H36.75V29.2509C36.75 29.9139 36.4866 30.5498 36.0178 31.0186C35.5489 31.4875 34.913 31.7509 34.25 31.7509H31.745C31.4135 31.7509 31.0955 31.8826 30.8611 32.117C30.6267 32.3514 30.495 32.6693 30.495 33.0009V40.5009C30.495 41.1632 30.2319 41.7985 29.7635 42.2669C29.2951 42.7352 28.6599 42.9984 27.9975 42.9984C27.3351 42.9984 26.6999 42.7352 26.2315 42.2669C25.7631 41.7985 25.5 41.1632 25.5 40.5009V33.0009C25.5 32.6693 25.3683 32.3514 25.1339 32.117C24.8995 31.8826 24.5815 31.7509 24.25 31.7509H21.75C21.087 31.7509 20.4511 31.4875 19.9822 31.0186C19.5134 30.5498 19.25 29.9139 19.25 29.2509Z" fill="#2FD887"/>
</svg>
