<svg width="18" height="16" viewBox="0 0 18 16" fill="none" xmlns="http://www.w3.org/2000/svg">
<path d="M5.03438 0.359375L6.06563 1.39062L3.31563 4.14062L2.8 4.57031L2.28438 4.14062L0.909375 2.76562L1.94063 1.73438L2.8 2.63672L5.03438 0.359375ZM8.3 1.5625H17.2375V2.9375H8.3V1.5625ZM5.03438 5.85938L6.06563 6.89062L3.31563 9.64062L2.8 10.0703L2.28438 9.64062L0.909375 8.26562L1.94063 7.23438L2.8 8.13672L5.03438 5.85938ZM8.3 7.0625H17.2375V8.4375H8.3V7.0625ZM5.03438 11.3594L6.06563 12.3906L3.31563 15.1406L2.8 15.5703L2.28438 15.1406L0.909375 13.7656L1.94063 12.7344L2.8 13.6367L5.03438 11.3594ZM8.3 12.5625H17.2375V13.9375H8.3V12.5625Z" fill="white"/>
</svg>
