<svg width="390" height="298" viewBox="0 0 390 298" fill="none" xmlns="http://www.w3.org/2000/svg">
<path d="M376.598 0.109375H13.4024C6.00082 0.109375 0 6.1109 0 13.5151V283.629C0 291.033 6.00082 297.034 13.4024 297.034H376.597C383.999 297.034 389.999 291.032 389.999 283.629V13.5151C390 6.1109 383.999 0.109375 376.598 0.109375Z" fill="#A729F5"/>
<path d="M390 283.626V13.5178C390 6.10828 383.997 0.111328 376.597 0.111328H355.018C362.418 0.111328 368.421 6.10828 368.421 13.5178V283.625C368.421 291.035 362.418 297.032 355.018 297.032H376.597C383.997 297.032 390 291.036 390 283.626Z" fill="#4C60E1"/>
<path d="M390 58.1631V13.5178C390 6.10828 383.997 0.111328 376.597 0.111328H13.4032C6.00311 0.11209 0 6.10904 0 13.5178V58.1631H390Z" fill="#E3F4FF"/>
<path d="M390 58.1631V13.5178C390 6.10828 383.997 0.111328 376.597 0.111328H355.018C362.418 0.111328 368.421 6.10828 368.421 13.5178V58.1631H390Z" fill="#BDDFF4"/>
<path d="M126.658 141.592H121.552V134.637C121.552 128.839 116.846 124.139 111.04 124.139C105.235 124.139 100.528 128.839 100.528 134.637V141.592H75.998L93.662 111.726C96.6144 106.734 94.9557 100.296 89.9568 97.3477C84.958 94.3984 78.5123 96.0557 75.5599 101.047L48.529 146.751C46.6098 149.996 46.5801 154.02 48.4506 157.294C50.3218 160.567 53.806 162.588 57.5805 162.588H100.529V194.227C100.529 200.025 105.235 204.725 111.041 204.725C116.847 204.725 121.553 200.025 121.553 194.227V162.588H126.659C132.464 162.588 137.171 157.888 137.171 152.09C137.17 146.292 132.464 141.592 126.658 141.592Z" fill="#FD9E28"/>
<path d="M332.418 141.592H327.313V134.637C327.313 128.839 322.607 124.139 316.801 124.139C310.995 124.139 306.289 128.839 306.289 134.637V141.592H281.758L299.422 111.726C302.374 106.734 300.715 100.296 295.717 97.3477C290.718 94.3984 284.272 96.0557 281.32 101.047L254.289 146.751C252.37 149.996 252.34 154.02 254.21 157.294C256.082 160.567 259.566 162.588 263.34 162.588H306.289V194.227C306.289 200.025 310.995 204.725 316.801 204.725C322.607 204.725 327.313 200.025 327.313 194.227V162.588H332.418C338.224 162.588 342.93 157.888 342.93 152.09C342.93 146.292 338.224 141.592 332.418 141.592Z" fill="#FD9E28"/>
<path fill-rule="evenodd" clip-rule="evenodd" d="M181.549 204.725H208.451C221.76 204.725 232.588 193.911 232.588 180.619V119.992C232.588 106.701 221.76 95.8867 208.451 95.8867H181.549C168.24 95.8867 157.412 106.7 157.412 119.992V180.619C157.412 193.911 168.24 204.725 181.549 204.725ZM180.368 124.144C180.368 121.205 182.763 118.814 185.705 118.814H204.294C207.237 118.814 209.632 121.205 209.632 124.144V176.467C209.632 179.407 207.237 181.798 204.294 181.798H185.705C182.763 181.798 180.368 179.406 180.368 176.467V124.144Z" fill="#FD9E28"/>
</svg>
